<svg height="512" viewBox="0 0 128 128" width="512" xmlns="http://www.w3.org/2000/svg"><g><path d="m110.877 41.183a9.838 9.838 0 0 1 0-13.895 10.548 10.548 0 0 1 4.866-2.638 10.126 10.126 0 1 0 -8.722-17.863 10.045 10.045 0 0 0 -3.684 5.524 10.253 10.253 0 0 1 -2.624 4.8 9.826 9.826 0 0 1 -13.9 0l-7.823-7.811a7.356 7.356 0 0 0 -5.242-2.181h-.01a7.386 7.386 0 0 0 -5.256 2.179l-61.562 61.557a7.456 7.456 0 0 0 0 10.5l39.72 39.709a7.356 7.356 0 0 0 5.242 2.181h.01a7.381 7.381 0 0 0 5.255-2.178l27.147-27.147a17.227 17.227 0 0 1 2.877 3.58 1.747 1.747 0 0 0 1.086.829 1.774 1.774 0 0 0 .434.055 1.747 1.747 0 0 0 .916-.259l2.856-1.754c1.7 3.26 3.144 6.814 4.427 10.022.785 1.963 1.526 3.816 2.248 5.395a5.706 5.706 0 0 0 8.213 2.466l1.741-1.094a5.715 5.715 0 0 0 2.577-3.685 5.625 5.625 0 0 0 -.9-4.386l-10.709-15.53-.035-.052c-.377-.6-2.023-3.225-4.446-6.871l23.121-23.126a7.419 7.419 0 0 0 0-10.508zm-2.636 67.582a2.179 2.179 0 0 1 -1 1.423l-1.746 1.1a2.205 2.205 0 0 1 -3.171-.953c-.687-1.5-1.414-3.319-2.182-5.242a112.322 112.322 0 0 0 -4.688-10.557l2.659-1.636 9.782 14.182a2.16 2.16 0 0 1 .346 1.683zm-19.013-14.517a37.821 37.821 0 0 0 -5.311-5.477 55.708 55.708 0 0 1 -7.52-7.877c-4.522-6-6.506-13.234-6.8-25.24 8.893 7.108 22.848 28.481 26.58 34.325zm-20.628-43.433a1.75 1.75 0 0 0 -2.533 1.565c0 14.843 2.114 23.429 7.542 30.622a46.3 46.3 0 0 0 3.783 4.387l-25.5 25.5-36.787-36.789 58.635-58.625 36.785 36.785-20.405 20.406c-6.82-9.646-15.648-20.908-21.52-23.851zm47.637 6.217-22.646 22.643c-.461-.678-.943-1.381-1.436-2.095l22.082-22.08a1.749 1.749 0 0 0 0-2.475l-39.259-39.262a1.749 1.749 0 0 0 -2.475 0l-61.11 61.1a1.749 1.749 0 0 0 0 2.475l39.26 39.262a1.75 1.75 0 0 0 2.474 0l26.766-26.769c.57.529 1.13 1.039 1.672 1.531l.177.161-27.069 27.07a3.908 3.908 0 0 1 -2.782 1.152 3.893 3.893 0 0 1 -2.77-1.152l-39.721-39.707a3.95 3.95 0 0 1 0-5.559l61.56-61.559a3.907 3.907 0 0 1 2.782-1.153 3.884 3.884 0 0 1 2.77 1.154l7.829 7.818a13.326 13.326 0 0 0 18.914-.069 13.613 13.613 0 0 0 3.468-6.33 6.583 6.583 0 0 1 2.414-3.615 6.662 6.662 0 0 1 8.09.1 6.568 6.568 0 0 1 2.508 4.817 6.619 6.619 0 0 1 -4.893 6.782 13.977 13.977 0 0 0 -6.442 3.545 13.341 13.341 0 0 0 0 18.845l7.829 7.82a3.918 3.918 0 0 1 0 5.554z"/><path d="m109.747 18.25a4.78 4.78 0 1 0 0-6.76 4.769 4.769 0 0 0 0 6.76zm2.475-4.284a1.279 1.279 0 1 1 0 1.808 1.277 1.277 0 0 1 0-1.808z"/><path d="m33.249 61.5-4.937 4.938a1.749 1.749 0 1 0 2.474 2.474l4.938-4.937a1.75 1.75 0 0 0 -2.475-2.475z"/></g></svg>