<svg height="512" viewBox="0 0 61 61" width="512" xmlns="http://www.w3.org/2000/svg"><path id="Shape" d="m3.15 60.1c.31847045.4859938.8325509.809464 1.40849905.8862571.57594814.0767931 1.15682147-.1006832 1.59150095-.4862571l7.42-6.93 1.65 2.06c.2190593.2915983.5794982.4408109.9405667.3893711.3610685-.0514399.6654975-.2953734.7944088-.6365455.1289112-.3411722.0618581-.7254695-.1749755-1.0028256l-1.78-2.18 2.61-2.44c4.4-3.48 8.54-6.91 12.34-10.2 3.78 3.26 7.9 6.66 12.36 10.2l2.69 2.44-1.74 2.18c-.2368336.2773561-.3038867.6616534-.1749755 1.0028256.1289113.3411721.4333403.5851056.7944088.6365455.3610685.0514398.7215074-.0977728.9405667-.3893711l1.65-2.06 7.45 7c.4386693.3827018 1.0223136.555281 1.5985681.4726845.5762545-.0825964 1.0879235-.4121705 1.4014319-.9026845 3.16-3.93 2.76-3.43 2.86-3.58.5272182-.8707723.3162843-1.9986232-.49-2.62l-8.09-6.21 1.65-2.06c.3244183-.4318457.2472849-1.0432686-.1742202-1.3810132-.4215052-.3377445-1.0350385-.2797404-1.3857798.1310132l-1.67 2.09c-4.8-3.69-9.55-7.76-14.08-11.76 14.03-12.9 22.26-23.36 24.36-31.13.305677-.93313138-.1112593-1.95014779-.9839797-2.40018308-.8727203-.45003529-1.9430571-.19996025-2.5260203.59018308-8.0338581 10.0146453-16.858883 19.3680347-26.39 27.97-9.5495224-8.6271664-18.394342-18.0036783-26.45-28.04-.59657468-.72764885-1.61968165-.94104555-2.45740005-.5125574-.8377184.42848814-1.26346476 1.38296499-1.02259995 2.2925574 2.08 7.82 10.28 18.28 24.46 31.19-4.57 4-9.28 8.07-14.08 11.76l-1.67-2.09c-.35074132-.4107536-.96427462-.4687577-1.38577977-.1310132-.42150516.3377446-.49863856.9491675-.17422023 1.3810132l1.65 2.06-8.09 6.21c-.80628427.6213768-1.0172182 1.7492277-.49 2.62zm1.67-1.1-2.82-3.52 1.14-.88 4.49 1.77zm2.56-7.64.7 3-3.08-1.18zm45.24 0 2.38 1.82-3.07 1.21zm2.59 7.64-2.85-2.67 4.48-1.77 1.15.89c-2.99 3.82-2.71 3.38-2.78 3.55zm-4.33-9-1 4.09-2.2-2.09 2.2-2.76zm-4.67.62-1.87-1.75 1.85-2.47 2.11 1.6zm11.72-47.54c-1.93 7.45-10.04 17.63-23.93 30.3-.11-.1-.78-.69-2.49-2.24 9.5389443-8.6357708 18.3736439-18.0188772 26.42-28.06zm-55.93-.08c10.29 12.5 20.41 23.76 42.63 42.17l-1.81 2.41c-16.97-13.52-37.48-32-40.82-44.58zm24 33.06c.8.72 1.62 1.44 2.45 2.17-3.49 3-7.28 6.16-11.29 9.35l-1.81-2.41c3.72-3.06 7.3-6.12 10.65-9.11zm-12.19 10.36 1.85 2.47-1.87 1.75-2.09-2.64zm-1.49 5.58-2.25 2.1-.95-4.1 1-.77z" transform="translate(0 -1)"/></svg>