<?xml version="1.0"?>
<svg xmlns="http://www.w3.org/2000/svg" id="outline" viewBox="0 0 512 512" width="512" height="512"><path d="M66.34277,493.65674A8.00076,8.00076,0,0,0,72,496h32a8.00008,8.00008,0,0,0,8-8V435.31348L179.31348,368H224a7.99993,7.99993,0,0,0,7.84473-6.43115l5.81152-29.05713A28.86013,28.86013,0,0,1,275.082,310.79346l26.38867,8.7959a8,8,0,0,0,8.18653-1.93262l82.39648-82.39649a364.88231,364.88231,0,0,0,69.24609-96.54834A364.856,364.856,0,0,0,495.92969,25.05713a7.9999,7.9999,0,0,0-9.87012-8.81836l-96,24a8.00176,8.00176,0,0,0-3.7168,2.10449l-86.11132,86.11133a32.75447,32.75447,0,0,1-33.70215,7.95605,8.00408,8.00408,0,0,0-8.18653,1.93262l-40,40A8.00035,8.00035,0,0,0,216,184v14.92432a52.19062,52.19062,0,0,1-15.38867,37.1499,52.86741,52.86741,0,0,1-29.71973,14.86035l-36.02246,5.146a8.00147,8.00147,0,0,0-4.52637,2.26269l-112,112A8.00035,8.00035,0,0,0,16,376v64a8.00035,8.00035,0,0,0,2.34277,5.65674ZM176,352a8.00076,8.00076,0,0,0-5.65723,2.34326l-72,72A8.00035,8.00035,0,0,0,96,432v48H75.31348L32,436.68652V416H72a8.00076,8.00076,0,0,0,5.65723-2.34326l91.261-91.261a75.459,75.459,0,0,1,12.05542,9.01587L203.43311,352Zm-22.63159-36.68237L128,340.68628V311.77173A74.57069,74.57069,0,0,1,153.36841,315.31763ZM112,314.04712v42.63916L96,372.6864V320.18286A74.28158,74.28158,0,0,1,112,314.04712Zm154.36426-161.0979a48.62662,48.62662,0,0,0,45.18164-13.18115l84.54394-84.54444,43.44873-10.86218L386.46484,95.22412l11.07032,11.55176L470.82422,36.54l7.48047-1.87012a348.81591,348.81591,0,0,1-31.34961,96.95362,348.88339,348.88339,0,0,1-66.21582,92.32324L320,284.686l-40-39.99952v-25.2727l45.53516-43.63794-11.07032-11.55176-42.3457,40.58118-28.80542-28.80554ZM139.77148,271.54248l33.38379-4.769a68.96551,68.96551,0,0,0,38.77051-19.38574A68.08649,68.08649,0,0,0,232,198.92432V187.314l32,31.99952V248a8.00035,8.00035,0,0,0,2.34277,5.65674L308.686,296l-6.84717,6.84717-21.69727-7.23242a44.85911,44.85911,0,0,0-58.1748,33.75976l-3.02686,15.13379-27.15381-24.89111a90.47473,90.47473,0,0,0-77.69287-22.39649ZM77.65723,333.65662v.00012c.76684-.76685,1.55175-1.5044,2.34277-2.2312v57.261L68.68652,400H64V347.3136ZM48,363.31348V400H32V379.31348Z"/><circle cx="240" cy="248" r="8"/><rect x="356.9196" y="116.00008" width="22.1608" height="15.99984" transform="translate(16.51117 289.0927) rotate(-43.78081)"/></svg>
