<?xml version="1.0" encoding="iso-8859-1"?>
<!-- Generator: Adobe Illustrator 19.0.0, SVG Export Plug-In . SVG Version: 6.00 Build 0)  -->
<svg version="1.1" id="Capa_1" xmlns="http://www.w3.org/2000/svg" xmlns:xlink="http://www.w3.org/1999/xlink" x="0px" y="0px"
	 viewBox="0 0 480.007 480.007" style="enable-background:new 0 0 480.007 480.007;" xml:space="preserve">
<g>
	<g>
		<path d="M475.58,0.847c-2.72-1.36-5.96-1.064-8.376,0.76l-25.072,18.808c-24.44,18.336-53.296,30.672-83.448,35.704
			c-2.312,0.384-4.336,1.768-5.544,3.776c-15.528,25.88-34.656,49.392-56.84,69.88l-67.424,62.232h-12.872c-4.416,0-8,3.584-8,8v8
			h-8c-4.416,0-8,3.584-8,8v8h-8c-4.416,0-8,3.584-8,8v8h-8c-4.416,0-8,3.584-8,8v12.688l-24,24l-10.344-10.344l-11.312,11.312
			l10.344,10.344L2.348,418.351c-3.128,3.128-3.128,8.184,0,11.312l48,48c1.56,1.56,3.608,2.344,5.656,2.344
			s4.096-0.784,5.656-2.344l122.344-122.344l10.344,10.344l11.312-11.312l-10.344-10.344l2.344-2.344
			c5.52-5.52,15.168-5.52,20.688,0c3.04,3.04,7.968,3.128,11.12,0.184l177.896-166.416c46.16-43.184,72.64-104.208,72.64-167.424
			C480.004,4.975,478.292,2.207,475.58,0.847z M56.004,460.695l-36.688-36.688l12.688-12.688l36.688,36.688L56.004,460.695z
			 M80.004,436.695l-36.688-36.688l92.688-92.688l36.688,36.688L80.004,436.695z M396.428,163.743l-172.96,161.808
			c-11.504-6.752-27.424-4.896-37.12,4.8l-2.344,2.344l-36.688-36.688l26.344-26.344c1.504-1.496,2.344-3.536,2.344-5.656v-8h8
			c4.416,0,8-3.584,8-8v-8h8c4.416,0,8-3.584,8-8v-8h8c4.416,0,8-3.584,8-8v-8h8c2.008,0,3.952-0.76,5.424-2.12l69.72-64.36
			c22.408-20.688,41.84-44.32,57.808-70.272c31.344-5.808,61.272-18.92,86.776-38.048l11.624-8.72
			C459.22,77.311,435.348,127.335,396.428,163.743z"/>
	</g>
</g>
<g>
	<g>
		<rect x="347.036" y="107.998" transform="matrix(0.7071 -0.7071 0.7071 0.7071 24.5927 291.367)" width="33.944" height="16"/>
	</g>
</g>
<g>
	<g>
		<path d="M448.004,176.007h-16c0,13.16-18.84,32-32,32v16c13.16,0,32,18.84,32,32h16c0-13.16,18.84-32,32-32v-16
			C466.844,208.007,448.004,189.167,448.004,176.007z M440.004,233.223c-4.504-6.68-10.536-12.712-17.216-17.216
			c6.68-4.504,12.712-10.536,17.216-17.216c4.504,6.68,10.536,12.712,17.216,17.216C450.54,220.511,444.508,226.543,440.004,233.223
			z"/>
	</g>
</g>
<g>
	<g>
		<path d="M176.004,64.007h-16c0,13.16-18.84,32-32,32v16c13.16,0,32,18.84,32,32h16c0-13.16,18.84-32,32-32v-16
			C194.844,96.007,176.004,77.167,176.004,64.007z M168.004,121.223c-4.504-6.68-10.536-12.712-17.216-17.216
			c6.68-4.504,12.712-10.536,17.216-17.216c4.504,6.68,10.536,12.712,17.216,17.216C178.54,108.511,172.508,114.543,168.004,121.223
			z"/>
	</g>
</g>
<g>
</g>
<g>
</g>
<g>
</g>
<g>
</g>
<g>
</g>
<g>
</g>
<g>
</g>
<g>
</g>
<g>
</g>
<g>
</g>
<g>
</g>
<g>
</g>
<g>
</g>
<g>
</g>
<g>
</g>
</svg>
