<svg id="Capa_1" enable-background="new 0 0 512 512" height="512" viewBox="0 0 512 512" width="512" xmlns="http://www.w3.org/2000/svg"><g><path d="m492 386.081v-50.458c0-55.349-14.516-110.007-41.977-158.064-2.669-4.675-7.64-7.559-13.023-7.559s-10.354 2.884-13.023 7.558c-27.461 48.056-41.977 102.714-41.977 158.065v26.377h-210.787l64.654-64.653 42.072 6.01c5.431.778 10.84-1.47 14.125-5.854 3.286-4.385 3.919-10.213 1.651-15.202l-18.803-41.367 41.367 18.803c5.691 2.585 12.393 1.373 16.813-3.049 4.422-4.421 5.637-11.121 3.049-16.813l-18.803-41.367 41.367 18.804c4.988 2.267 10.816 1.634 15.201-1.651 4.386-3.286 6.63-8.701 5.855-14.126l-6.011-42.073 37.123-37.123c5.858-5.857 5.858-15.355 0-21.213-5.857-5.858-15.355-5.857-21.213 0l-42.427 42.426c-3.339 3.338-4.91 8.054-4.243 12.728l3.199 22.389-52.854-24.024c-5.691-2.587-12.393-1.373-16.813 3.049-4.422 4.421-5.637 11.121-3.049 16.813l18.803 41.367-41.366-18.803c-5.69-2.587-12.393-1.373-16.813 3.049-4.422 4.421-5.637 11.121-3.049 16.813l24.023 52.853-22.39-3.198c-4.67-.665-9.39.904-12.728 4.243l-89.953 89.956v-185.787c0-33.204-7.849-66.453-22.698-96.151-14.849-29.699-36.739-55.927-63.302-75.849-4.544-3.409-10.626-3.957-15.708-1.417-5.082 2.541-8.292 7.735-8.292 13.417v371.081c-12.401 13.384-20 31.277-20 50.919 0 41.355 33.645 75 75 75h362c41.355 0 75-33.645 75-75 0-19.642-7.599-37.535-20-50.919zm-80-50.458c0-40.511 8.582-80.609 25-117.478 16.418 36.869 25 76.968 25 117.478v30.677c-7.825-2.775-16.236-4.3-25-4.3h-25zm-312-160.623v187h-25c-8.764 0-17.175 1.525-25 4.3v-317.739c31.725 33.996 50 79.361 50 126.439zm337 307h-362c-24.813 0-45-20.187-45-45s20.187-45 45-45h362c24.813 0 45 20.187 45 45s-20.187 45-45 45z"/><circle cx="75" cy="437" r="15"/><circle cx="437" cy="437" r="15"/><path d="m346 422h-180c-8.284 0-15 6.716-15 15s6.716 15 15 15h180c8.284 0 15-6.716 15-15s-6.716-15-15-15z"/></g></svg>